<?xml version="1.0" encoding="UTF-8" standalone="no"?>
<!-- Created with Inkscape (http://www.inkscape.org/) -->

<svg
   width="42.708557mm"
   height="8.4670486mm"
   viewBox="0 0 42.708557 8.4670486"
   version="1.1"
   id="svg5"
   xml:space="preserve"
   xmlns="http://www.w3.org/2000/svg"
   xmlns:svg="http://www.w3.org/2000/svg"><defs
     id="defs2"><rect
       x="129.32327"
       y="138.22408"
       width="402.10641"
       height="167.54434"
       id="rect952" /></defs><g
     id="layer1"
     transform="translate(-78.374021,-73.416048)"><g
       aria-label="A_GROUP"
       transform="matrix(0.11946454,0,0,0.11946454,62.889516,54.508897)"
       id="text950"
       style="font-size:85.3333px;font-family:'Franklin Gothic Medium';-inkscape-font-specification:'Franklin Gothic Medium, ';white-space:pre;shape-inside:url(#rect952);fill:#ffffff;stroke-width:0.377953"><path
         d="M 180.1992,216.01576 H 169.24087 L 164.6992,202.4741 h -21.87499 l -4.45833,13.54166 h -8.74999 l 18.87499,-56.87497 h 12.62499 z m -18.24999,-21.74999 -8.29167,-25.37499 -8.29166,25.37499 z"
         id="path9970" /><path
         d="m 180.78253,220.4741 h 42.66665 v 8.66666 h -42.66665 z"
         style="fill:#e00000"
         id="path9972" /><path
         d="m 272.86583,186.93244 v 29.08332 h -4.54167 l -3.125,-7.66666 q -4.95833,8.54166 -15.37499,8.54166 -11.625,0 -17.37499,-8.83333 -5.70833,-8.83333 -5.70833,-20.45832 0,-12.29166 6.37499,-20.79166 6.41667,-8.54166 17.91666,-8.54166 8.58333,0 14.125,5 5.54166,4.95833 6.99999,12.37499 l -8.91666,1.58333 q -2.5,-10.41666 -11.95833,-10.41666 -6.04166,0 -9.87499,4.91667 -3.79167,4.91666 -3.79167,15.12499 0,21.54166 13.5,21.54166 5.24999,0 8.66666,-3.625 3.45833,-3.625 3.45833,-9.58333 h -11.74999 v -8.25 z"
         id="path9974" /><path
         d="m 328.82414,216.01576 h -10.83333 l -8.83333,-23.37499 h -14.41666 v 23.37499 h -10.24999 v -56.87497 h 24.66665 q 10.29167,0 15.125,4.66666 4.83333,4.625 4.83333,12 0,10.95833 -10.25,15.08332 z m -34.08332,-31.58332 h 12.75 q 5.54166,0 8.24999,-2.33333 2.70834,-2.33333 2.70834,-6.41666 0,-3.75 -2.66667,-6.04167 -2.66667,-2.33333 -7.45833,-2.33333 h -13.58333 z"
         id="path9976" /><path
         d="m 359.53245,216.89076 q -11.33333,0 -17.66666,-8.49999 -6.29166,-8.5 -6.29166,-20.99999 0,-12.41667 6.70833,-20.75 6.70833,-8.37499 17.70832,-8.37499 11.08333,0 17.5,8.37499 6.45833,8.33333 6.45833,20.875 0,13.16666 -6.70833,21.29165 -6.66667,8.08333 -17.70833,8.08333 z m 0.0833,-8.24999 q 5.54167,0 9.375,-4.58333 3.83333,-4.58334 3.83333,-16.625 0,-9.79166 -3.16667,-15.33332 -3.16666,-5.58334 -9.83332,-5.58334 -13.16667,0 -13.16667,21.20833 0,10.29166 3.33334,15.62499 3.375,5.29167 9.62499,5.29167 z"
         id="path9978" /><path
         d="m 432.53243,159.14079 v 36.54165 q 0,7.41666 -1.66666,11.41666 -1.66667,4 -6.45834,6.91666 -4.74999,2.875 -11.62499,2.875 -6.95833,0 -11.45833,-2.5 -4.45833,-2.49999 -6.41666,-6.83333 -1.95834,-4.37499 -1.95834,-11.12499 v -37.29165 h 10.45833 v 36.54165 q 0,7.5 3.125,9.87499 3.16667,2.33334 7.33333,2.33334 4.79167,0 7.66667,-2.5 2.87499,-2.54167 2.87499,-9.70833 v -36.54165 z"
         id="path9980" /><path
         d="m 454.49075,216.01576 h -10.25 v -56.87497 h 23.29166 q 9.95833,0 14.74999,5.04166 4.83333,5 4.83333,11.83333 0,7.79166 -5.20833,12.625 -5.20833,4.83333 -13.20833,4.83333 h -14.20832 z m 0,-31.33332 h 12.12499 q 4.75,0 7.25,-2.33333 2.5,-2.33333 2.5,-6.20833 0,-3.5 -2.33334,-6 -2.29166,-2.5 -8.33333,-2.5 h -11.20832 z"
         id="path9982" /></g></g></svg>
